<svg xmlns="http://www.w3.org/2000/svg"  viewBox="0 0 80 80" width="80px" height="80px"><path d="M 21 10 C 20.447 10 20 10.448 20 11 L 20 27 L 14 27 C 13.447 27 13 27.448 13 28 L 13 55 C 13 55.552 13.447 56 14 56 L 20 56 L 20 69 C 20 69.552 20.447 70 21 70 L 66 70 C 66.553 70 67 69.552 67 69 C 67 69 66.993187 25.035484 66.992188 25.021484 C 66.997187 24.754484 66.903031 24.489969 66.707031 24.292969 L 52.707031 10.292969 C 52.461031 10.046969 52.171609 10 51.599609 10 L 21 10 z M 22 12 L 51 12 L 51 25 C 51 25.552 51.447 26 52 26 L 65 26 L 65 68 L 22 68 L 22 56 L 41 56 C 41.553 56 42 55.552 42 55 L 42 28 C 42 27.448 41.553 27 41 27 L 22 27 L 22 12 z M 53 13.414062 L 63.585938 24 L 53 24 L 53 13.414062 z M 15 29 L 40 29 L 40 54 L 15 54 L 15 29 z M 47 32 A 1 1 0 0 0 47 34 A 1 1 0 0 0 47 32 z M 51 32 A 1 1 0 0 0 51 34 A 1 1 0 0 0 51 32 z M 55 32 A 1 1 0 0 0 55 34 A 1 1 0 0 0 55 32 z M 59 32 A 1 1 0 0 0 59 34 A 1 1 0 0 0 59 32 z M 18.349609 34.304688 L 21.722656 48.695312 L 25.107422 48.695312 L 27.572266 37.630859 L 30.037109 48.695312 L 33.277344 48.695312 L 36.650391 34.304688 L 33.835938 34.304688 L 31.611328 44.757812 L 29.146484 34.304688 L 25.998047 34.304688 L 23.457031 45.080078 L 21.164062 34.304688 L 18.349609 34.304688 z M 47 38 A 1 1 0 0 0 47 40 A 1 1 0 0 0 47 38 z M 51 38 A 1 1 0 0 0 51 40 A 1 1 0 0 0 51 38 z M 55 38 A 1 1 0 0 0 55 40 A 1 1 0 0 0 55 38 z M 59 38 A 1 1 0 0 0 59 40 A 1 1 0 0 0 59 38 z M 47 44 A 1 1 0 0 0 47 46 A 1 1 0 0 0 47 44 z M 51 44 A 1 1 0 0 0 51 46 A 1 1 0 0 0 51 44 z M 55 44 A 1 1 0 0 0 55 46 A 1 1 0 0 0 55 44 z M 59 44 A 1 1 0 0 0 59 46 A 1 1 0 0 0 59 44 z M 47 50 A 1 1 0 0 0 47 52 A 1 1 0 0 0 47 50 z M 51 50 A 1 1 0 0 0 51 52 A 1 1 0 0 0 51 50 z M 55 50 A 1 1 0 0 0 55 52 A 1 1 0 0 0 55 50 z M 59 50 A 1 1 0 0 0 59 52 A 1 1 0 0 0 59 50 z"/></svg>